<svg id="Layer_1" data-name="Layer 1" xmlns="http://www.w3.org/2000/svg" viewBox="0 0 75 66"><defs><style>.cls-1{fill:#263650;}</style></defs><title>conciliacion</title><path class="cls-1" d="M35.55,16.41a1,1,0,1,1,1-1h2a2.91,2.91,0,0,0-2-2.75V10.56h-2v2.13a2.92,2.92,0,0,0,1,5.67,1,1,0,1,1-1,1h-2a2.94,2.94,0,0,0,2,2.75v2.13h2V22.09a2.92,2.92,0,0,0-1-5.68ZM54.09,6.65V8.6H58v3.91h1.95V6.65Zm9.76,15.71V2.75H7.25V32H38.48V58.37a4.88,4.88,0,0,0,4.87,4.88H62.87a4.89,4.89,0,0,0,4.88-4.88V27.15A4.9,4.9,0,0,0,63.85,22.36ZM38.48,30.07H9.2V4.7H61.9V22.27H45.1a10.59,10.59,0,0,0,1.18-4.88,10.78,10.78,0,1,0-7.8,10.31Zm.29-4.53a8.67,8.67,0,0,1-3.22.63,8.79,8.79,0,1,1,8.78-8.78,8.61,8.61,0,0,1-1.54,4.93A4.87,4.87,0,0,0,38.77,25.54Zm27,32.83a2.94,2.94,0,0,1-2.93,2.93H43.35a2.93,2.93,0,0,1-2.92-2.93V27.15a2.93,2.93,0,0,1,2.92-2.93H62.87a2.93,2.93,0,0,1,2.93,2.93ZM58,45.69V59.35h5.86V45.69ZM61.9,57.4h-2V47.64h2ZM50.19,53.49v5.86H56V53.49Zm3.9,3.91h-2v-2h2ZM42.38,53.49v5.86h5.85V53.49Zm3.9,3.91h-2v-2h2Zm3.91-11.71v5.85H56V45.69Zm3.9,3.9h-2v-2h2Zm-11.71-3.9v5.85h5.85V45.69Zm3.9,3.9h-2v-2h2Zm3.91-11.71v5.85H56V37.88Zm3.9,3.9h-2v-2h2Zm3.9-3.9v5.85h5.86V37.88Zm3.91,3.9h-2v-2h2Zm-19.52-3.9v5.85h5.85V37.88Zm3.9,3.9h-2v-2h2Zm-3.9-15.61v9.76H63.85V26.17ZM61.9,34H44.33V28.12H61.9Zm-30.25,2a2.93,2.93,0,0,0-2.93,2.92s0,.08,0,.12l-4.66,1.86a2.87,2.87,0,0,0-4-.32l-5-3a2.88,2.88,0,0,0,.06-.59,2.93,2.93,0,1,0-2.93,2.93A2.9,2.9,0,0,0,14,39.15l5,3a2.72,2.72,0,0,0-.06.58,2.93,2.93,0,1,0,5.85,0s0-.08,0-.12l4.66-1.86a2.89,2.89,0,0,0,2.19,1,2.93,2.93,0,0,0,0-5.85Zm-19.52,2a1,1,0,1,1,0-2,1,1,0,0,1,0,2Zm9.76,5.85a1,1,0,1,1,1-1A1,1,0,0,1,21.89,43.73Zm9.76-3.9a1,1,0,1,1,1-1A1,1,0,0,1,31.65,39.83ZM34.57,61.3V43.73H28.72V61.3H24.81V47.64H19V61.3h-3.9V41.78H9.2V61.3H7.25v2H36.52v-2Zm-21.47,0H11.15V43.73H13.1Zm9.76,0H20.91V49.59h1.95Zm9.76,0H30.67V45.69h1.95Zm7.81-44.89h2v1.95h-2Zm-11.71,0h2v1.95h-2Z"/></svg>