<svg id="Layer_1" data-name="Layer 1" xmlns="http://www.w3.org/2000/svg" viewBox="0 0 75 66"><defs><style>.cls-1{fill:#263650;}</style></defs><title>gastos</title><path class="cls-1" d="M34.79,45a1.29,1.29,0,0,0,0-1.85A1.31,1.31,0,0,0,32.94,45,1.29,1.29,0,0,0,34.79,45Z"/><path class="cls-1" d="M28.58,13.84A14.43,14.43,0,1,0,43-.59,14.44,14.44,0,0,0,28.58,13.84Zm26.24,0A11.81,11.81,0,1,1,43,2,11.83,11.83,0,0,1,54.82,13.84Z"/><path class="cls-1" d="M19,66.2a1.31,1.31,0,0,0,1.85,0L27.24,60a4,4,0,0,0,.93-4.07l1.37-1.32a3.94,3.94,0,0,1,2.73-1.11H49.71A11.74,11.74,0,0,0,58,50.11c.09-.09-.7.83,11.89-14.21a5.25,5.25,0,0,0-8-6.81l-7.74,8A5.29,5.29,0,0,0,50,35.09H35.41a16.93,16.93,0,0,0-6.57-1.31c-6.31,0-11.83,2.92-14.79,8.39a3.93,3.93,0,0,0-3.51,1.08L4.3,49.51a1.31,1.31,0,0,0,0,1.85Zm9.81-29.8a14.46,14.46,0,0,1,5.78,1.2,1.16,1.16,0,0,0,.52.11H50A2.63,2.63,0,0,1,50,43H39.34a1.31,1.31,0,0,0,0,2.62H50a5.25,5.25,0,0,0,5.25-5.24,5.34,5.34,0,0,0,0-.69l8.59-8.83a2.62,2.62,0,1,1,4,3.39L56.07,48.27a9.13,9.13,0,0,1-6.36,2.56H32.27a6.52,6.52,0,0,0-4.55,1.84l-1.11,1.08L16.33,43.47C18.73,39,23.24,36.4,28.84,36.4ZM12.4,45.11A1.3,1.3,0,0,1,14,44.92c.23.14-.42-.45,11.37,11.32a1.31,1.31,0,0,1,0,1.84L20,63.43l-12.89-13Z"/><path class="cls-1" d="M41.44,6V7.51a3.93,3.93,0,0,0,1.31,7.64,1.31,1.31,0,1,1,0,2.62,2.39,2.39,0,0,1-1.71-1,1.31,1.31,0,1,0-2,1.69,5.41,5.41,0,0,0,2.4,1.71v1.53a1.31,1.31,0,1,0,2.62,0V20.17a3.93,3.93,0,0,0-1.31-7.64,1.32,1.32,0,0,1,0-2.63,2.13,2.13,0,0,1,1.42.69A1.31,1.31,0,0,0,46,8.7a5.06,5.06,0,0,0-1.93-1.2V6a1.31,1.31,0,1,0-2.62,0Z"/></svg>