<svg id="Layer_1" data-name="Layer 1" xmlns="http://www.w3.org/2000/svg" viewBox="0 0 75 66"><defs><style>.cls-1{fill:#263650;}</style></defs><title>Artboard 4</title><rect class="cls-1" x="29.7" y="24.33" width="1.73" height="1.73"/><rect class="cls-1" x="29.7" y="27.8" width="1.73" height="1.73"/><rect class="cls-1" x="29.7" y="31.27" width="1.73" height="1.73"/><rect class="cls-1" x="29.7" y="34.73" width="1.73" height="1.73"/><rect class="cls-1" x="33.17" y="24.33" width="1.73" height="1.73"/><rect class="cls-1" x="33.17" y="27.8" width="1.73" height="1.73"/><rect class="cls-1" x="33.17" y="31.27" width="1.73" height="1.73"/><rect class="cls-1" x="33.17" y="34.73" width="1.73" height="1.73"/><rect class="cls-1" x="36.63" y="24.33" width="1.73" height="1.73"/><rect class="cls-1" x="36.63" y="27.8" width="1.73" height="1.73"/><rect class="cls-1" x="36.63" y="31.27" width="1.73" height="1.73"/><rect class="cls-1" x="36.63" y="34.73" width="1.73" height="1.73"/><rect class="cls-1" x="40.1" y="24.33" width="1.73" height="1.73"/><rect class="cls-1" x="33.17" y="20.87" width="1.73" height="1.73"/><rect class="cls-1" x="36.63" y="20.87" width="1.73" height="1.73"/><rect class="cls-1" x="40.1" y="20.87" width="1.73" height="1.73"/><rect class="cls-1" x="40.1" y="27.8" width="1.73" height="1.73"/><rect class="cls-1" x="40.1" y="31.27" width="1.73" height="1.73"/><rect class="cls-1" x="40.1" y="34.73" width="1.73" height="1.73"/><rect class="cls-1" x="43.57" y="24.33" width="1.73" height="1.73"/><rect class="cls-1" x="43.57" y="27.8" width="1.73" height="1.73"/><rect class="cls-1" x="43.57" y="31.27" width="1.73" height="1.73"/><rect class="cls-1" x="43.57" y="34.73" width="1.73" height="1.73"/><path class="cls-1" d="M62.63,20h-13V7.87A.86.86,0,0,0,48.77,7H26.23a.86.86,0,0,0-.86.87h0V20h-13a.87.87,0,0,0-.87.87h0v31.2a.86.86,0,0,0,.87.86h1.81a5.12,5.12,0,0,0-.08.87v4.33A.87.87,0,0,0,15,59H60a.87.87,0,0,0,.87-.87h0V53.8a5.12,5.12,0,0,0-.08-.87h1.81a.86.86,0,0,0,.87-.86h0V20.87A.87.87,0,0,0,62.63,20ZM48.77,44.27A1.74,1.74,0,1,1,47,42.53,1.74,1.74,0,0,1,48.77,44.27ZM28,42.53a1.74,1.74,0,1,1-1.74,1.74A1.74,1.74,0,0,1,28,42.53Zm-5.2,14.74H15.83V53.8a3.47,3.47,0,1,1,6.94,0Zm-5.2-10.4A1.73,1.73,0,1,1,19.3,48.6,1.73,1.73,0,0,1,17.57,46.87Zm5.33,3.18a5.66,5.66,0,0,0-1.09-.8,3.47,3.47,0,1,0-5,0,5.32,5.32,0,0,0-2,2H13.23V21.73H25.37V42a3.42,3.42,0,0,0,.09,4.65A5.22,5.22,0,0,0,22.9,50.05Zm8.53,7.22H24.5V51.2a3.47,3.47,0,1,1,6.93,0Zm10.4,0H33.17V51.2a4.33,4.33,0,1,1,8.66,0ZM34.9,42.53a2.6,2.6,0,1,1,2.6,2.6A2.6,2.6,0,0,1,34.9,42.53Zm7.88,5.69a6.12,6.12,0,0,0-2.49-2.4,4.33,4.33,0,1,0-6.1-.52,3.65,3.65,0,0,0,.52.52,6.12,6.12,0,0,0-2.49,2.4,5.08,5.08,0,0,0-1.75-1.57,3.44,3.44,0,0,0-3.37-5.73V8.73H47.9V40.92A3.58,3.58,0,0,0,47,40.8a3.46,3.46,0,0,0-2.5,5.85A5.08,5.08,0,0,0,42.78,48.22ZM50.5,53.8v3.47H43.57V51.2a3.47,3.47,0,1,1,6.93,0Zm8.67,3.47H52.23V53.8a3.47,3.47,0,0,1,6.94,0ZM54,46.87A1.73,1.73,0,1,1,55.7,48.6,1.73,1.73,0,0,1,54,46.87Zm7.8,4.33H60.2a5.32,5.32,0,0,0-2-2,3.47,3.47,0,1,0-5,0,5.66,5.66,0,0,0-1.09.8,5.22,5.22,0,0,0-2.56-3.4A3.42,3.42,0,0,0,49.63,42V21.73H61.77V51.2Z"/><rect class="cls-1" x="52.23" y="26.93" width="1.73" height="13.87"/><rect class="cls-1" x="57.43" y="26.93" width="1.73" height="13.87"/><rect class="cls-1" x="15.83" y="26.93" width="1.73" height="13.87"/><rect class="cls-1" x="21.03" y="26.93" width="1.73" height="13.87"/><path class="cls-1" d="M42.7,10.47H32.3a.86.86,0,0,0-.87.86h0v6.94a.86.86,0,0,0,.87.86H42.7a.86.86,0,0,0,.87-.86h0V11.33A.86.86,0,0,0,42.7,10.47Zm-.87,6.93H33.17V12.2h8.66Z"/></svg>