<svg id="Layer_1" data-name="Layer 1" xmlns="http://www.w3.org/2000/svg" xmlns:xlink="http://www.w3.org/1999/xlink" viewBox="0 0 512 42"><defs><style>.cls-1{fill:none;}.cls-2{clip-path:url(#clip-path);}.cls-3{fill:#fff;}</style><clipPath id="clip-path"><rect class="cls-1" x="-1672.33" y="-418.25" width="1442.66" height="811.5"/></clipPath></defs><title>logo</title><g class="cls-2"><image width="3984" height="2656" transform="translate(-1750 -769.67) scale(0.44)" xlink:href="../../../../architecture-blue-sky-bricks-1371636.jpg"/></g><polygon class="cls-3" points="44.49 30.73 44.49 5.83 23.53 30.73 13.98 41.47 7.96 41.47 42.76 0.52 49.31 0.52 49.32 41.47 44.55 41.47 44.49 30.73"/><path class="cls-3" d="M77.78,41.47H63.66V.81H77.78c12.78,0,21.61,8.77,21.61,20.27S90.56,41.47,77.78,41.47m0-36.42H68.26V37.23h9.52c10.28,0,16.85-7,16.85-16S88.06,5.05,77.78,5.05"/><polygon class="cls-3" points="131.52 30.32 131.28 30.32 116.47 8.59 116.47 41.47 112 41.47 112 0.81 116.64 0.81 131.46 23 146.26 0.81 150.92 0.81 150.92 41.47 146.33 41.47 146.33 8.54 131.52 30.32"/><rect class="cls-3" x="165.72" y="0.81" width="4.6" height="40.67"/><polygon class="cls-3" points="215.04 0.81 219.51 0.81 219.51 41.47 215.85 41.47 189.59 8.13 189.59 41.47 185.12 41.47 185.12 0.81 189.42 0.81 215.04 33.4 215.04 0.81"/><rect class="cls-3" x="234.32" y="0.81" width="4.59" height="40.67"/><path class="cls-3" d="M268.31,18.93c9.06,2,13.24,5.29,13.24,11.57,0,7-5.81,11.55-13.88,11.55a23.85,23.85,0,0,1-16.62-6.5l2.85-3.37c4.24,3.83,8.31,5.75,13.94,5.75,5.46,0,9.07-2.85,9.07-7,0-3.84-2-6-10.58-7.79-9.35-2-13.65-5.05-13.65-11.79C252.68,4.87,258.32.23,266,.23a21.16,21.16,0,0,1,14.29,5l-2.67,3.53a17.91,17.91,0,0,0-11.74-4.41c-5.28,0-8.65,2.91-8.65,6.63,0,3.89,2.09,6,11,8"/><polygon class="cls-3" points="308.33 41.47 303.68 41.47 303.68 5.05 290.02 5.05 290.02 0.81 321.98 0.81 321.98 5.05 308.33 5.05 308.33 41.47"/><path class="cls-3" d="M361.48,41.47l-11.8-15.8H338.07v15.8h-4.59V.81H351c9,0,14.7,4.82,14.7,12.14,0,6.8-4.65,10.75-11,11.91l12.49,16.61ZM350.61,5.05H338.07v16.5h12.49c6.1,0,10.45-3.14,10.45-8.43,0-5-3.83-8.07-10.4-8.07"/><path class="cls-3" d="M397.26,42.17c-12.37,0-20.68-9.7-20.68-21S385,.11,397.37.11s20.69,9.71,20.69,21-8.43,21.09-20.8,21.09m0-37.82c-9.3,0-15.92,7.44-15.92,16.73s6.74,16.85,16,16.85,15.92-7.44,15.92-16.73-6.74-16.85-16-16.85"/><polygon class="cls-3" points="440.24 26.25 424.79 0.81 437.63 0.81 445.99 15.62 454.41 0.81 467.02 0.81 451.57 26.08 451.57 41.47 440.24 41.47 440.24 26.25"/><path class="cls-3" d="M468.24,21.26v-.12C468.24,9.47,477.64,0,490.19,0S512,9.35,512,21v.11c0,11.68-9.41,21.15-21.95,21.15s-21.84-9.36-21.84-21m32.29,0v-.12c0-5.86-4.23-11-10.45-11S479.8,15.16,479.8,21v.11c0,5.87,4.23,11,10.39,11s10.34-5,10.34-10.86"/></svg>