<svg id="Layer_1" data-name="Layer 1" xmlns="http://www.w3.org/2000/svg" viewBox="0 0 75 66"><defs><style>.cls-1{fill:#263650;}</style></defs><title>movbancarios</title><path class="cls-1" d="M22.69,63.82a1.23,1.23,0,0,0-1.23-1.23H10.36V61.35A6.16,6.16,0,0,0,4.2,55.19H3v-7.4H4.2a6.16,6.16,0,0,0,6.16-6.16V40.4H32.55v1.23a6.16,6.16,0,0,0,6.16,6.16H40v7.4H38.71a6.16,6.16,0,0,0-6.16,6.16v1.24H27a1.23,1.23,0,0,0,0,2.46H41.18a1.23,1.23,0,0,0,1.23-1.23V39.17a1.24,1.24,0,0,0-1.23-1.24H1.73A1.24,1.24,0,0,0,.5,39.17V63.82a1.23,1.23,0,0,0,1.23,1.23H21.46A1.23,1.23,0,0,0,22.69,63.82ZM40,62.59H35V61.35a3.69,3.69,0,0,1,3.69-3.69H40ZM40,40.4v4.93H38.71A3.7,3.7,0,0,1,35,41.63V40.4Zm-37,0H7.9v1.23a3.7,3.7,0,0,1-3.7,3.7H3ZM3,62.59V57.66H4.2a3.7,3.7,0,0,1,3.7,3.69v1.24ZM21.46,45.33a6.17,6.17,0,1,0,6.16,6.16A6.16,6.16,0,0,0,21.46,45.33Zm0,9.86a3.7,3.7,0,1,1,3.69-3.7A3.69,3.69,0,0,1,21.46,55.19Zm12.32-2.46a1.24,1.24,0,1,0,0-2.47H31.32a1.24,1.24,0,1,0,0,2.47ZM9.13,50.26a1.24,1.24,0,0,0,0,2.47h2.46a1.24,1.24,0,1,0,0-2.47ZM73.85,11,56.59,1.11a1.25,1.25,0,0,0-1.24,0L38.1,11a1.25,1.25,0,0,0-.62,1.4,1.23,1.23,0,0,0,1.23.91h2.47V25.61H40a1.23,1.23,0,1,0,0,2.46H70.76v2.47H40A1.23,1.23,0,1,0,40,33H70.76a2.46,2.46,0,0,0,2.47-2.46V28.07a2.46,2.46,0,0,0-2.47-2.46V13.28h2.47A1.23,1.23,0,0,0,73.85,11ZM56,3.6l12.61,7.21H43.36Zm7.4,9.68V25.61h-3.7V13.28Zm-11.1,0V25.61H48.58V13.28ZM43.64,25.61V13.28h2.47V25.61Zm11.1,0V13.28H57.2V25.61Zm13.56,0H65.83V13.28H68.3ZM66.6,41.9,60.43,37a1.23,1.23,0,0,0-1.52,0L52.74,41.9a1.24,1.24,0,0,0,.77,2.2H56V49H49.81a1.23,1.23,0,0,0,0,2.46H57.2a1.24,1.24,0,0,0,1.24-1.23v-7.4a1.24,1.24,0,0,0-1.24-1.23H57l2.65-2.12,2.65,2.12h-.19a1.23,1.23,0,0,0-1.23,1.23v7.4A3.7,3.7,0,0,1,57.2,54H46.11a1.23,1.23,0,1,0,0,2.46H57.2a6.16,6.16,0,0,0,6.17-6.16V44.1h2.46a1.24,1.24,0,0,0,.77-2.2Z"/></svg>