<svg id="Layer_1" data-name="Layer 1" xmlns="http://www.w3.org/2000/svg" viewBox="0 0 75 66"><defs><style>.cls-1{fill:#263650;}</style></defs><title>reportes</title><path class="cls-1" d="M38.28,22h-11V33h11Zm-1.56,9.4H28.88V23.6h7.84Z"/><path class="cls-1" d="M54.73,22H42.2a.79.79,0,0,0,0,1.57H54.73a.79.79,0,1,0,0-1.57Z"/><path class="cls-1" d="M54.73,26.73H42.2a.79.79,0,0,0,0,1.57H54.73a.79.79,0,1,0,0-1.57Z"/><path class="cls-1" d="M54.73,31.43H42.2a.79.79,0,0,0,0,1.57H54.73a.79.79,0,1,0,0-1.57Z"/><path class="cls-1" d="M54.73,36.13H28.88a.79.79,0,0,0,0,1.57H54.73a.79.79,0,1,0,0-1.57Z"/><path class="cls-1" d="M40.63,40.83H28.88a.79.79,0,0,0,0,1.57H40.63a.79.79,0,1,0,0-1.57Z"/><path class="cls-1" d="M40.63,45.53H28.88a.79.79,0,0,0,0,1.57H40.63a.79.79,0,1,0,0-1.57Z"/><path class="cls-1" d="M40.63,50.23H28.88a.79.79,0,0,0,0,1.57H40.63a.79.79,0,1,0,0-1.57Z"/><path class="cls-1" d="M44.55,51.8h11v-11h-11Zm1.57-9.4H54v7.83H46.12Z"/><path class="cls-1" d="M60.22,19.68s0,0,0,0V9.5H22.62V33H14.78V51.8a4.71,4.71,0,0,0,4.7,4.7h36a4.7,4.7,0,0,0,4.69-4.69V19.72S60.22,19.7,60.22,19.68Zm-1.58-8.61V18.9H24.18V11.07ZM16.35,51.8V34.57h6.27V51.8a3.14,3.14,0,0,1-6.27,0Zm39.17,3.13H23s0,0,0,0a4.83,4.83,0,0,0,.43-.58l.06-.11a4.07,4.07,0,0,0,.33-.66.3.3,0,0,0,0-.1,4.5,4.5,0,0,0,.21-.74.17.17,0,0,0,0-.07,4.58,4.58,0,0,0,.08-.83V20.47H58.64V51.81A3.12,3.12,0,0,1,55.52,54.93Z"/><path class="cls-1" d="M50.82,12.63H32v4.7h18.8Zm-1.57,3.14H33.58V14.2H49.25Z"/></svg>